<?xml version="1.0" encoding="UTF-8"?>
<svg width="20px" height="19px" viewBox="0 0 20 19" version="1.1" xmlns="http://www.w3.org/2000/svg" xmlns:xlink="http://www.w3.org/1999/xlink">
    <!-- Generator: sketchtool 50 (54983) - http://www.bohemiancoding.com/sketch -->
    <title>309C6E9B-086D-42D4-86A9-415498BA7D4C</title>
    <desc>Created with sketchtool.</desc>
    <defs></defs>
    <g id="Students" stroke="none" stroke-width="1" fill="none" fill-rule="evenodd">
        <g id="Admin_SchoolSetup-Copy-2" transform="translate(-631.000000, -671.000000)">
            <g id="calendar-icon" transform="translate(631.000000, 671.000000)">
                <g id="Group">
                    <polygon id="Frames-24px" points="0 0 20 0 20 20 0 20"></polygon>
                    <g id="Outline" transform="translate(0.833333, 0.833333)" fill="#757575" fill-rule="nonzero">
                        <path d="M16.6666667,1.66666667 L14.1666667,1.66666667 L14.1666667,0 L12.5,0 L12.5,5 L14.1666667,5 L14.1666667,3.33333333 L16.6666667,3.33333333 L16.6666667,15.8333333 L1.66666667,15.8333333 L1.66666667,3.33333333 L3.33333333,3.33333333 L3.33333333,1.66666667 L1.66666667,1.66666667 C0.746192084,1.66666667 1.85037171e-16,2.41285875 0,3.33333333 L0,15.8333333 C1.85037171e-16,16.7538079 0.746192084,17.5 1.66666667,17.5 L16.6666667,17.5 C17.5871412,17.5 18.3333333,16.7538079 18.3333333,15.8333333 L18.3333333,3.33333333 C18.3333333,2.41285875 17.5871412,1.66666667 16.6666667,1.66666667 Z" id="Shape"></path>
                        <polygon id="Shape" points="5.83333333 3.33333333 11.6666667 3.33333333 11.6666667 1.66666667 5.83333333 1.66666667 5.83333333 0 4.16666667 0 4.16666667 5 5.83333333 5"></polygon>
                        <polygon id="Shape" points="3.33333333 6.66666667 6.66666667 6.66666667 6.66666667 10 3.33333333 10"></polygon>
                        <polygon id="Shape" points="7.5 6.66666667 10.8333333 6.66666667 10.8333333 10 7.5 10"></polygon>
                        <polygon id="Shape" points="11.6666667 6.66666667 15 6.66666667 15 10 11.6666667 10"></polygon>
                        <polygon id="Shape" points="3.33333333 10.8333333 6.66666667 10.8333333 6.66666667 14.1666667 3.33333333 14.1666667"></polygon>
                        <polygon id="Shape" points="7.5 10.8333333 10.8333333 10.8333333 10.8333333 14.1666667 7.5 14.1666667"></polygon>
                    </g>
                </g>
            </g>
        </g>
    </g>
</svg>