<?xml version="1.0" encoding="UTF-8"?>
<svg width="16px" height="16px" viewBox="0 0 16 16" version="1.1" xmlns="http://www.w3.org/2000/svg" xmlns:xlink="http://www.w3.org/1999/xlink">
    <!-- Generator: Sketch 50.2 (55047) - http://www.bohemiancoding.com/sketch -->
    <title>Shape</title>
    <desc>Created with Sketch.</desc>
    <defs></defs>
    <g id="Students" stroke="none" stroke-width="1" fill="none" fill-rule="evenodd">
        <g id="Time_Mobile_StudentSelected-Copy" transform="translate(-290.000000, -14.000000)" fill="#C9C9C9" fill-rule="nonzero">
            <g id="Cog,-Wheel,-Gear,-Setting" transform="translate(290.000000, 14.000000)">
                <path d="M10.6666667,8 C10.6666667,7.26388889 10.40625,6.63541667 9.88541667,6.11458333 C9.36458333,5.59375 8.73611111,5.33333333 8,5.33333333 C7.26388889,5.33333333 6.63541667,5.59375 6.11458333,6.11458333 C5.59375,6.63541667 5.33333333,7.26388889 5.33333333,8 C5.33333333,8.73611111 5.59375,9.36458333 6.11458333,9.88541667 C6.63541667,10.40625 7.26388889,10.6666667 8,10.6666667 C8.73611111,10.6666667 9.36458333,10.40625 9.88541667,9.88541667 C10.40625,9.36458333 10.6666667,8.73611111 10.6666667,8 Z M16,6.86458333 L16,9.17708333 C16,9.26041667 15.9722222,9.34027778 15.9166667,9.41666667 C15.8611111,9.49305556 15.7916667,9.53819444 15.7083333,9.55208333 L13.78125,9.84375 C13.6493056,10.21875 13.5138889,10.5347222 13.375,10.7916667 C13.6180556,11.1388889 13.9895833,11.6180556 14.4895833,12.2291667 C14.5590278,12.3125 14.59375,12.3993056 14.59375,12.4895833 C14.59375,12.5798611 14.5625,12.6597222 14.5,12.7291667 C14.3125,12.9861111 13.96875,13.3611111 13.46875,13.8541667 C12.96875,14.3472222 12.6423611,14.59375 12.4895833,14.59375 C12.40625,14.59375 12.3159722,14.5625 12.21875,14.5 L10.78125,13.375 C10.4756944,13.5347222 10.1597222,13.6666667 9.83333333,13.7708333 C9.72222222,14.7152778 9.62152778,15.3611111 9.53125,15.7083333 C9.48263889,15.9027778 9.35763889,16 9.15625,16 L6.84375,16 C6.74652778,16 6.66145833,15.9704861 6.58854167,15.9114583 C6.515625,15.8524306 6.47569444,15.7777778 6.46875,15.6875 L6.17708333,13.7708333 C5.83680556,13.6597222 5.52430556,13.53125 5.23958333,13.3854167 L3.77083333,14.5 C3.70138889,14.5625 3.61458333,14.59375 3.51041667,14.59375 C3.41319444,14.59375 3.32638889,14.5555556 3.25,14.4791667 C2.375,13.6875 1.80208333,13.1041667 1.53125,12.7291667 C1.48263889,12.6597222 1.45833333,12.5798611 1.45833333,12.4895833 C1.45833333,12.40625 1.48611111,12.3263889 1.54166667,12.25 C1.64583333,12.1041667 1.82291667,11.8732639 2.07291667,11.5572917 C2.32291667,11.2413194 2.51041667,10.9965278 2.63541667,10.8229167 C2.44791667,10.4756944 2.30555556,10.1319444 2.20833333,9.79166667 L0.302083333,9.51041667 C0.211805556,9.49652778 0.138888889,9.453125 0.0833333333,9.38020833 C0.0277777778,9.30729167 0,9.22569444 0,9.13541667 L0,6.82291667 C0,6.73958333 0.0277777778,6.65972222 0.0833333333,6.58333333 C0.138888889,6.50694444 0.204861111,6.46180556 0.28125,6.44791667 L2.21875,6.15625 C2.31597222,5.83680556 2.45138889,5.51736111 2.625,5.19791667 C2.34722222,4.80208333 1.97569444,4.32291667 1.51041667,3.76041667 C1.44097222,3.67708333 1.40625,3.59375 1.40625,3.51041667 C1.40625,3.44097222 1.4375,3.36111111 1.5,3.27083333 C1.68055556,3.02083333 2.02256944,2.64756944 2.52604167,2.15104167 C3.02951389,1.65451389 3.35763889,1.40625 3.51041667,1.40625 C3.60069444,1.40625 3.69097222,1.44097222 3.78125,1.51041667 L5.21875,2.625 C5.52430556,2.46527778 5.84027778,2.33333333 6.16666667,2.22916667 C6.27777778,1.28472222 6.37847222,0.638888889 6.46875,0.291666667 C6.51736111,0.0972222222 6.64236111,0 6.84375,0 L9.15625,0 C9.25347222,0 9.33854167,0.0295138889 9.41145833,0.0885416667 C9.484375,0.147569444 9.52430556,0.222222222 9.53125,0.3125 L9.82291667,2.22916667 C10.1631944,2.34027778 10.4756944,2.46875 10.7604167,2.61458333 L12.2395833,1.5 C12.3020833,1.4375 12.3854167,1.40625 12.4895833,1.40625 C12.5798611,1.40625 12.6666667,1.44097222 12.75,1.51041667 C13.6458333,2.33680556 14.21875,2.92708333 14.46875,3.28125 C14.5173611,3.33680556 14.5416667,3.41319444 14.5416667,3.51041667 C14.5416667,3.59375 14.5138889,3.67361111 14.4583333,3.75 C14.3541667,3.89583333 14.1770833,4.12673611 13.9270833,4.44270833 C13.6770833,4.75868056 13.4895833,5.00347222 13.3645833,5.17708333 C13.5451389,5.52430556 13.6875,5.86458333 13.7916667,6.19791667 L15.6979167,6.48958333 C15.7881944,6.50347222 15.8611111,6.546875 15.9166667,6.61979167 C15.9722222,6.69270833 16,6.77430556 16,6.86458333 Z" id="Shape"></path>
            </g>
        </g>
    </g>
</svg>