<?xml version="1.0" encoding="UTF-8"?>
<svg width="60px" height="60px" viewBox="0 0 60 60" version="1.1" xmlns="http://www.w3.org/2000/svg" xmlns:xlink="http://www.w3.org/1999/xlink">
    <!-- Generator: sketchtool 50 (54983) - http://www.bohemiancoding.com/sketch -->
    <title>D0C7BEC6-CDDE-48A4-98B2-5B2BA34F7017</title>
    <desc>Created with sketchtool.</desc>
    <defs></defs>
    <g id="Students" stroke="none" stroke-width="1" fill="none" fill-rule="evenodd">
        <g id="Admin_SchoolSetup-Copy" transform="translate(-482.000000, -285.000000)" fill="#F5633A" fill-rule="nonzero">
            <g id="Add" transform="translate(482.000000, 285.000000)">
                <g id="Layer_1">
                    <path d="M30,60 C13.4326172,60 0,46.5692578 0,30 C0,13.4307422 13.4326172,0 30,0 C46.5692578,0 60,13.4307422 60,30 C60,46.5692578 46.5692578,60 30,60 Z M30,7.5 C17.5744922,7.5 7.5,17.5744922 7.5,30 C7.5,42.4255078 17.5744922,52.5 30,52.5 C42.4273828,52.5 52.5,42.4255078 52.5,30 C52.5,17.5744922 42.4273828,7.5 30,7.5 Z M33.75,45 L26.25,45 L26.25,33.75 L15,33.75 L15,26.25 L26.25,26.25 L26.25,15 L33.75,15 L33.75,26.25 L45,26.25 L45,33.75 L33.75,33.75 L33.75,45 Z" id="Shape"></path>
                </g>
            </g>
        </g>
    </g>
</svg>