<?xml version="1.0" encoding="UTF-8"?>
<svg width="19px" height="19px" viewBox="0 0 19 19" version="1.1" xmlns="http://www.w3.org/2000/svg" xmlns:xlink="http://www.w3.org/1999/xlink">
    <!-- Generator: sketchtool 50 (54983) - http://www.bohemiancoding.com/sketch -->
    <title>9E5F5340-FD87-439B-8DEB-D1FC27DFA665</title>
    <desc>Created with sketchtool.</desc>
    <defs></defs>
    <g id="Students" stroke="none" stroke-width="1" fill="none" fill-rule="evenodd">
        <g id="Admin_SchoolSetup-Copy-3" transform="translate(-964.000000, -118.000000)" fill="#FFFFFF">
            <g id="next" transform="translate(880.000000, 103.000000)">
                <g id="Arrow" transform="translate(93.500000, 24.500000) rotate(-180.000000) translate(-93.500000, -24.500000) translate(84.000000, 15.000000)">
                    <g id="Capa_1" transform="translate(9.500000, 9.500000) rotate(-90.000000) translate(-9.500000, -9.500000) translate(-0.000000, 0.000000)">
                        <g id="Group">
                            <path d="M9.5,0 C14.7451561,0 19,4.25332266 19,9.5 C19,14.7466773 14.7451561,19 9.5,19 C4.25484388,19 0,14.7466773 0,9.5 C0,4.25332266 4.25484388,0 9.5,0 Z M13.8461169,4.06469175 L10.2210568,4.06469175 L5.15540432,9.5 L10.2210568,14.9353082 L13.8461169,14.9353082 L8.78046437,9.5 L13.8461169,4.06469175 Z" id="Shape" transform="translate(9.500000, 9.500000) rotate(-270.000000) translate(-9.500000, -9.500000) "></path>
                        </g>
                    </g>
                </g>
            </g>
        </g>
    </g>
</svg>