<?xml version="1.0" encoding="UTF-8"?>
<svg width="23px" height="23px" viewBox="0 0 23 23" version="1.1" xmlns="http://www.w3.org/2000/svg" xmlns:xlink="http://www.w3.org/1999/xlink">
    <!-- Generator: sketchtool 50.2 (55047) - http://www.bohemiancoding.com/sketch -->
    <title>E2D4AE1C-BA22-41AF-808A-F373A430A422</title>
    <desc>Created with sketchtool.</desc>
    <defs></defs>
    <g id="Students" stroke="none" stroke-width="1" fill="none" fill-rule="evenodd">
        <g id="Filteropen_Desktop" transform="translate(-298.000000, -164.000000)" fill="#000000" fill-rule="nonzero">
            <g id="Filter-Group" transform="translate(0.000000, 138.000000)">
                <g id="Close-Filters" transform="translate(309.556349, 37.556349) rotate(-315.000000) translate(-309.556349, -37.556349) translate(298.556349, 26.556349)">
                    <g id="Layer_1">
                        <path d="M11,22 C4.92529297,22 0,17.0753945 0,11 C0,4.92460547 4.92529297,0 11,0 C17.0753945,0 22,4.92460547 22,11 C22,17.0753945 17.0753945,22 11,22 Z M11,2.75 C6.44398047,2.75 2.75,6.44398047 2.75,11 C2.75,15.5560195 6.44398047,19.25 11,19.25 C15.556707,19.25 19.25,15.5560195 19.25,11 C19.25,6.44398047 15.556707,2.75 11,2.75 Z M12.375,16.5 L9.625,16.5 L9.625,12.375 L5.5,12.375 L5.5,9.625 L9.625,9.625 L9.625,5.5 L12.375,5.5 L12.375,9.625 L16.5,9.625 L16.5,12.375 L12.375,12.375 L12.375,16.5 Z" id="Shape"></path>
                    </g>
                </g>
            </g>
        </g>
    </g>
</svg>